<?xml version="1.0" encoding="UTF-8" standalone="no" ?>
<!DOCTYPE svg PUBLIC "-//W3C//DTD SVG 1.1//EN" "http://www.w3.org/Graphics/SVG/1.1/DTD/svg11.dtd">
<svg xmlns="http://www.w3.org/2000/svg" xmlns:xlink="http://www.w3.org/1999/xlink" version="1.1" width="1080" height="1080" viewBox="0 0 1080 1080" xml:space="preserve">
<desc>Created with Fabric.js 5.2.4</desc>
<defs>
</defs>
<g transform="matrix(1 0 0 1 540 540)" id="e233ee73-7568-4894-9e4b-5ed6e38bdf81"  >
</g>
<g transform="matrix(1 0 0 1 540 540)" id="d220238a-8094-44f1-938f-b55128322926"  >
<rect style="stroke: none; stroke-width: 1; stroke-dasharray: none; stroke-linecap: butt; stroke-dashoffset: 0; stroke-linejoin: miter; stroke-miterlimit: 4; fill: rgb(255,255,255); fill-rule: nonzero; opacity: 1; visibility: hidden;" vector-effect="non-scaling-stroke"  x="-540" y="-540" rx="0" ry="0" width="1080" height="1080" />
</g>
<g transform="matrix(1 0 0 1 540 540)"  >
<rect style="stroke: none; stroke-width: 1; stroke-dasharray: none; stroke-linecap: butt; stroke-dashoffset: 0; stroke-linejoin: miter; stroke-miterlimit: 4; fill: rgb(255,255,255); fill-rule: nonzero; opacity: 1; visibility: hidden;" vector-effect="non-scaling-stroke"  x="-540" y="-540" rx="0" ry="0" width="1080" height="1080" />
</g>
<g transform="matrix(1 0 0 1 541.69 744.08)"  >
<path style="stroke: none; stroke-width: 1; stroke-dasharray: none; stroke-linecap: butt; stroke-dashoffset: 0; stroke-linejoin: miter; stroke-miterlimit: 4; fill: rgb(237,244,245); fill-rule: nonzero; opacity: 1;" vector-effect="non-scaling-stroke"  transform=" translate(-575.53, -800.21)" d="M 654.411621 637.475342 C 651.873596 685.178711 649.410156 732.416321 646.860596 779.649231 C 645.065247 812.910889 643.071533 846.161926 641.311035 879.425354 C 638.459106 933.312439 635.731384 987.206116 632.940308 1041.096436 C 631.570557 1067.544312 630.184204 1093.991211 628.772034 1120.43689 C 628.695618 1121.86731 628.310791 1123.28125 627.932251 1125.511841 C 619.705505 1121.254028 612.071472 1117.32251 604.45575 1113.356201 C 596.19043 1109.051514 587.849915 1104.877686 579.732117 1100.30957 C 576.534912 1098.510498 574.061401 1098.725098 570.952332 1100.394409 C 556.585693 1108.108765 542.106628 1115.61377 527.657532 1123.174072 C 526.375732 1123.844727 525.019531 1124.373413 523.087219 1125.242676 C 522.781311 1123.059814 522.439026 1121.478149 522.353455 1119.88269 C 519.499695 1066.658691 516.696899 1013.431885 513.83075 960.208496 C 510.329071 895.184082 506.736969 830.164429 503.259064 765.138794 C 500.074493 705.5979 497.001099 646.050964 493.857178 586.507935 C 491.986664 551.081543 490.136169 515.653809 488.101654 480.236786 C 487.852692 475.90274 489.328552 474.927643 493.388 474.935455 C 548.206909 475.040894 603.026184 475.046234 657.844971 474.902374 C 662.161499 474.891052 663.17981 476.257263 662.943909 480.340393 C 660.302185 526.066772 657.794189 571.800903 655.27948 617.534546 C 654.922791 624.021179 654.722351 630.516418 654.411621 637.475342 z" stroke-linecap="round" />
</g>
<g transform="matrix(1 0 0 1 269.38 260.07)"  >
<path style="stroke: none; stroke-width: 1; stroke-dasharray: none; stroke-linecap: butt; stroke-dashoffset: 0; stroke-linejoin: miter; stroke-miterlimit: 4; fill: rgb(237,244,245); fill-rule: nonzero; opacity: 1;" vector-effect="non-scaling-stroke"  transform=" translate(-303.23, -316.18)" d="M 344.724792 494.742188 C 307.779419 508.658875 271.2005 522.442627 234.617111 536.2146 C 209.392731 545.710449 184.165054 555.197571 158.925323 564.652527 C 157.74614 565.094238 156.435074 565.183838 154.154602 565.646667 C 156.854797 558.74231 159.205643 552.606995 161.647202 546.507996 C 179.328751 502.339722 197.051544 458.187866 214.659393 413.990265 C 215.606323 411.613434 216.327301 408.776642 215.990204 406.313171 C 210.12178 363.42511 204.06192 320.563293 198.062943 277.693085 C 192.29599 236.480957 186.588638 195.260468 180.782776 154.053848 C 177.043335 127.513428 173.160019 100.993301 169.384659 74.457893 C 169.042953 72.056206 169.019745 69.609215 168.815125 66.708275 C 174.433502 72.024384 179.760025 76.669312 184.641144 81.742767 C 246.866119 146.419693 309.097351 211.09111 371.052582 276.025787 C 375.351685 280.531616 377.921875 286.911713 380.544159 292.757507 C 403.836578 344.681946 426.961304 396.681641 450.122681 448.664886 C 450.849365 450.295837 451.437714 451.988464 452.29834 454.181824 C 416.295197 467.756531 380.692261 481.180359 344.724792 494.742188 z" stroke-linecap="round" />
</g>
<g transform="matrix(1 0 0 1 813.92 261.05)"  >
<path style="stroke: none; stroke-width: 1; stroke-dasharray: none; stroke-linecap: butt; stroke-dashoffset: 0; stroke-linejoin: miter; stroke-miterlimit: 4; fill: rgb(237,244,245); fill-rule: nonzero; opacity: 1;" vector-effect="non-scaling-stroke"  transform=" translate(-846.2, -315.62)" d="M 956.838989 255.007584 C 956.859985 255.42189 956.880981 255.836182 956.527222 256.740845 C 955.466431 259.580994 954.493835 261.889557 954.14856 264.288391 C 953.153931 271.198059 952.570618 278.167816 951.53949 285.071198 C 949.209595 300.66922 946.520569 316.21524 944.326233 331.831421 C 941.948181 348.755066 939.97229 365.735138 937.807678 382.688904 C 937.071167 388.457825 936.951599 394.410492 935.363342 399.938202 C 933.520752 406.350586 934.555908 411.89679 937.002014 417.814941 C 945.008606 437.186493 952.705261 456.686188 960.513367 476.139709 C 967.387329 493.265839 974.258484 510.393127 981.116394 527.525696 C 985.196289 537.718384 989.308228 547.899231 993.241638 558.148315 C 993.774536 559.536743 993.349243 561.292847 993.367615 562.878662 C 991.777161 562.843994 990.037476 563.221436 988.620178 562.708496 C 978.7724 559.144409 968.988464 555.403503 959.18988 551.703979 C 936.803467 543.252075 914.419312 534.794006 892.036316 526.333191 C 876.794983 520.57196 861.55719 514.801392 846.317383 509.036072 C 831.429077 503.403625 816.550171 497.746033 801.648621 492.148804 C 788.425659 487.182129 775.174194 482.291351 761.940918 477.352203 C 748.541138 472.350891 735.147217 467.333862 721.752563 462.318909 C 714.359741 459.551056 706.970581 456.773376 698.895325 453.743317 C 702.772522 445.70578 706.343933 438.778595 709.501038 431.667542 C 718.68103 410.990356 727.621521 390.206909 736.793274 369.526062 C 747.652344 345.040161 758.525513 320.558716 769.674744 296.204498 C 772.971252 289.003693 776.11499 281.259491 781.247681 275.463745 C 795.238159 259.666199 810.228699 244.752472 824.867371 229.531296 C 859.013489 194.026398 893.181213 158.542282 927.349243 123.058464 C 944.421265 105.328941 961.50708 87.612625 978.62146 69.924026 C 979.218689 69.306824 980.189758 69.051392 981.682678 68.256866 C 981.554016 70.243866 981.576477 71.512711 981.373413 72.744362 C 980.619629 77.316742 979.668213 81.859619 979.026001 86.446465 C 978.380798 91.054688 978.18512 95.727478 977.496887 100.327751 C 975.161316 115.938454 972.48999 131.501312 970.333557 147.135757 C 967.930542 164.558136 966.079285 182.056107 963.740906 199.488037 C 962.198242 210.988434 960.026794 222.404892 958.50824 233.907959 C 957.586121 240.892883 957.37146 247.971207 956.838989 255.007584 z" stroke-linecap="round" />
</g>
<g transform="matrix(1 0 0 1 787.78 737.06)"  >
<path style="stroke: none; stroke-width: 1; stroke-dasharray: none; stroke-linecap: butt; stroke-dashoffset: 0; stroke-linejoin: miter; stroke-miterlimit: 4; fill: rgb(237,244,245); fill-rule: nonzero; opacity: 1;" vector-effect="non-scaling-stroke"  transform=" translate(-821.63, -793.17)" d="M 706.240601 666.1521 C 697.931946 670.354187 689.955688 674.387207 680.667847 679.083374 C 684.158813 613.6297 687.583557 549.416931 691.077698 483.904327 C 789.111023 521.020447 886.20166 557.779663 984.292847 594.917725 C 981.870239 597.135254 980.393188 598.612366 978.789856 599.936584 C 933.992981 636.938477 889.187805 673.930115 844.374329 710.911743 C 817.669373 732.949585 791.022949 755.059509 764.161133 776.904541 C 759.650879 780.572388 758.716492 785.558655 757.220703 790.354858 C 734.927124 861.839111 712.760254 933.362854 690.554932 1004.874634 C 680.587402 1036.974976 670.601807 1069.069824 660.611023 1101.162842 C 660.465759 1101.629883 660.148376 1102.043335 658.964661 1102.439575 C 659.419861 1092.858154 659.821106 1083.273804 660.339844 1073.695801 C 662.222168 1038.937988 664.121887 1004.181152 666.056702 969.426208 C 668.268921 929.68634 670.591675 889.952637 672.744751 850.209595 C 674.952026 809.464966 677.018677 768.71283 679.132751 727.963196 C 679.745728 716.146973 679.723694 716.156799 691.276855 715.926025 C 712.428955 715.503723 733.584045 715.171326 754.727966 714.492371 C 757.128601 714.415344 760.395325 712.999939 761.694519 711.121887 C 786.122559 675.808289 810.316589 640.332703 834.542542 604.879395 C 835.264404 603.822937 835.801697 602.640259 836.424988 601.516418 C 836.146179 601.106995 835.867371 600.697632 835.588562 600.288208 C 792.583374 622.186462 749.578186 644.084656 706.240601 666.1521 z" stroke-linecap="round" />
</g>
<g transform="matrix(1 0 0 1 295.76 734.09)"  >
<path style="stroke: none; stroke-width: 1; stroke-dasharray: none; stroke-linecap: butt; stroke-dashoffset: 0; stroke-linejoin: miter; stroke-miterlimit: 4; fill: rgb(237,244,245); fill-rule: nonzero; opacity: 1;" vector-effect="non-scaling-stroke"  transform=" translate(-329.59, -790.2)" d="M 312.041809 597.884277 C 312.842804 599.882263 313.309753 602.108032 314.49411 603.844482 C 337.095123 636.980164 360.236328 669.760681 382.156921 703.338623 C 388.331329 712.79657 394.829163 716.269226 405.790161 716.009583 C 425.42627 715.544495 445.097809 716.565125 464.75415 716.983765 C 466.379364 717.018311 468.001495 717.196777 470.068817 717.338867 C 476.964874 843.411255 483.840302 969.107361 490.715759 1094.803467 C 490.403198 1094.891968 490.090607 1094.980469 489.778015 1095.06897 C 487.632019 1088.497192 485.407013 1081.950073 483.353088 1075.349854 C 471.636292 1037.697632 459.972534 1000.028931 448.266998 962.37323 C 435.92041 922.655151 423.540833 882.947266 411.188263 843.231018 C 405.014648 823.38147 398.968628 803.491089 392.592377 783.707031 C 391.740936 781.065186 389.68277 778.459961 387.507782 776.649353 C 349.378876 744.907654 311.172882 713.258362 272.924835 681.660095 C 239.555008 654.09198 206.110916 626.613831 172.706421 599.087708 C 171.566086 598.148071 170.498627 597.119995 168.473434 595.30542 C 265.457733 558.580566 361.750641 522.117615 458.906219 485.327942 C 462.347168 549.569946 465.736176 612.842407 469.186523 677.259949 C 464.806824 675.11908 461.294159 673.464355 457.836243 671.702209 C 410.672546 647.668701 363.51709 623.61908 316.354797 599.582764 C 315.169678 598.97876 313.929901 598.482117 312.268921 597.816895 C 311.719757 597.855652 311.617279 598.012878 311.514771 598.170044 C 311.69046 598.074768 311.86615 597.979492 312.041809 597.884277 z" stroke-linecap="round" />
</g>
<g transform="matrix(1 0 0 1 541.61 310.38)"  >
<path style="stroke: none; stroke-width: 1; stroke-dasharray: none; stroke-linecap: butt; stroke-dashoffset: 0; stroke-linejoin: miter; stroke-miterlimit: 4; fill: rgb(237,244,245); fill-rule: nonzero; opacity: 1;" vector-effect="non-scaling-stroke"  transform=" translate(-575.42, -366.47)" d="M 430.121033 333.943542 C 422.622589 317.601196 415.30484 301.589111 407.617065 284.767334 C 519.777771 284.767334 631.062805 284.767334 743.23175 284.767334 C 740.155212 291.611206 737.30365 298.056305 734.370117 304.463806 C 713.582581 349.867981 692.697693 395.227844 672.086853 440.712036 C 669.661804 446.063904 666.966919 448.215088 660.705261 448.181488 C 603.375549 447.873657 546.043396 447.953735 488.712463 448.107391 C 484.05777 448.119843 481.649689 446.706268 479.695923 442.384399 C 463.375214 406.28241 446.80011 370.295441 430.121033 333.943542 z" stroke-linecap="round" />
</g>
<g transform="matrix(1 0 0 1 171.52 544.27)"  >
<path style="stroke: none; stroke-width: 1; stroke-dasharray: none; stroke-linecap: butt; stroke-dashoffset: 0; stroke-linejoin: miter; stroke-miterlimit: 4; fill: rgb(1,0,0); fill-rule: nonzero; opacity: 1;" vector-effect="non-scaling-stroke"  transform=" translate(-311.77, -598.01)" d="M 312.030579 597.91687 C 311.86615 597.979492 311.69046 598.074768 311.514771 598.170044 C 311.617279 598.012878 311.719757 597.855652 311.904602 597.85437 C 311.987 598.010376 312.019379 597.949463 312.030579 597.91687 z" stroke-linecap="round" />
</g>
<g transform="matrix(0 0 0 0 0 0)"  >
<g style=""   >
</g>
</g>
<g transform="matrix(0 0 0 0 0 0)"  >
<g style=""   >
</g>
</g>
</svg>